<svg xmlns="http://www.w3.org/2000/svg" viewBox="0 0 320 200" role="img" aria-label="Digital theme preview"><rect width="320" height="200" fill="#f8fafc"/><rect width="320" height="26" fill="#fff"/><rect x="12" y="9" width="46" height="8" rx="4" fill="#7c3aed"/><rect x="230" y="10" width="20" height="6" rx="3" fill="#cbd5e1"/><rect x="258" y="10" width="20" height="6" rx="3" fill="#cbd5e1"/><rect x="0" y="26" width="320" height="76" fill="#ddd6fe"/><rect x="24" y="44" width="120" height="12" rx="6" fill="#7c3aed"/><rect x="24" y="64" width="170" height="7" rx="3.5" fill="#fff" opacity=".8"/><rect x="24" y="78" width="54" height="14" rx="7" fill="#7c3aed"/><g fill="#fff" stroke="#e2e8f0"><rect x="16" y="114" width="64" height="72" rx="6"/><rect x="92" y="114" width="64" height="72" rx="6"/><rect x="168" y="114" width="64" height="72" rx="6"/><rect x="244" y="114" width="64" height="72" rx="6"/></g><g fill="#ddd6fe"><rect x="22" y="120" width="52" height="40" rx="4"/><rect x="98" y="120" width="52" height="40" rx="4"/><rect x="174" y="120" width="52" height="40" rx="4"/><rect x="250" y="120" width="52" height="40" rx="4"/></g><g fill="#cbd5e1"><rect x="22" y="167" width="40" height="5" rx="2.5"/><rect x="98" y="167" width="40" height="5" rx="2.5"/><rect x="174" y="167" width="40" height="5" rx="2.5"/><rect x="250" y="167" width="40" height="5" rx="2.5"/></g></svg>